<svg width="24" height="24" viewBox="0 0 24 24" fill="none" xmlns="http://www.w3.org/2000/svg"><path d="M19.3501 12V12.15H19.5001H20.5001H20.6501V12C20.6501 7.2227 16.7773 3.34996 12.0001 3.34996H11.8501V3.49996V4.49996V4.64996H12.0001C16.0594 4.64996 19.3501 7.94067 19.3501 12ZM4.65008 12V11.85H4.50008H3.50008H3.35008V12C3.35008 16.7772 7.22282 20.65 12.0001 20.65H12.1501V20.5V19.5V19.35H12.0001C7.94079 19.35 4.65008 16.0593 4.65008 12ZM10.1168 15.7439L10.1168 15.7439L10.1189 15.7449C10.4855 15.9305 10.9105 16.0487 11.3911 16.1026V16.7444C11.3911 16.851 11.4245 16.9512 11.5026 17.0287C11.5834 17.1088 11.685 17.15 11.7985 17.15H12.2239C12.334 17.15 12.4337 17.111 12.5089 17.0289C12.5917 16.9542 12.6314 16.8547 12.6314 16.7444V16.1138C13.3723 16.0318 13.9743 15.8061 14.4251 15.4257L14.4251 15.4257L14.4262 15.4248C14.9095 15.0091 15.15 14.4589 15.15 13.7889C15.15 13.3533 15.056 12.9814 14.8564 12.6838C14.6595 12.3828 14.3643 12.1411 13.9809 11.9545C13.6026 11.7631 13.0923 11.5824 12.4543 11.411C11.9129 11.2564 11.5062 11.1216 11.231 11.0067C10.9612 10.8867 10.7705 10.7542 10.6481 10.6142C10.5408 10.4832 10.4821 10.312 10.4821 10.0889C10.4821 9.75651 10.6064 9.52061 10.8515 9.35841C11.1092 9.18788 11.4757 9.09443 11.9665 9.09443C12.4067 9.09443 12.7598 9.19294 13.0353 9.3797L13.0353 9.37972L13.0374 9.3811C13.3138 9.56176 13.4595 9.78224 13.4971 10.0436L13.4983 10.0522L13.5006 10.0606C13.5261 10.157 13.5761 10.2424 13.6582 10.302C13.7392 10.3607 13.8363 10.3833 13.9366 10.3833H14.5299C14.633 10.3833 14.7348 10.3521 14.8081 10.2685C14.8763 10.1986 14.915 10.1109 14.915 10.0111H14.9152L14.9148 10.0032C14.8983 9.69193 14.7912 9.38619 14.6012 9.08731C14.4147 8.78199 14.1385 8.52216 13.7798 8.30534C13.4543 8.10442 13.0703 7.97137 12.6314 7.90286V7.25554C12.6314 7.14526 12.5917 7.04577 12.5089 6.97111C12.4337 6.88897 12.334 6.84999 12.2239 6.84999H11.7985C11.6849 6.84999 11.5833 6.89113 11.5026 6.9713C11.4245 7.04879 11.3911 7.149 11.3911 7.25554V7.88875C10.7066 7.97909 10.1512 8.21317 9.73748 8.60122C9.29714 9.00675 9.07392 9.5093 9.07392 10.1C9.07392 10.5351 9.16398 10.9091 9.35426 11.2129C9.54227 11.5131 9.82112 11.7592 10.1826 11.9542C10.5392 12.1466 11.0131 12.3241 11.6002 12.4886C12.1955 12.6658 12.6378 12.8124 12.9298 12.9283C13.2172 13.0424 13.4196 13.1695 13.5485 13.3038L13.5485 13.3039L13.5511 13.3064C13.6754 13.4298 13.7418 13.5931 13.7418 13.8111C13.7418 14.1559 13.608 14.4169 13.3359 14.6102C13.0587 14.7998 12.6282 14.9055 12.0224 14.9055C11.4643 14.9055 11.0554 14.7972 10.7771 14.5998C10.487 14.3942 10.3186 14.1562 10.2541 13.8872L10.2523 13.8797L10.2497 13.8723C10.2171 13.7799 10.1671 13.6974 10.0924 13.6381C10.0158 13.5773 9.92487 13.55 9.8284 13.55H9.24631C9.13557 13.55 9.03891 13.5945 8.96153 13.6713C8.89042 13.7419 8.85004 13.8313 8.85004 13.9333H8.84989L8.85019 13.94C8.86639 14.3019 8.98015 14.6426 9.18799 14.9599L9.18793 14.96L9.19044 14.9636C9.40838 15.276 9.71961 15.5351 10.1168 15.7439ZM21.85 12C21.85 17.44 17.44 21.85 12 21.85C6.56 21.85 2.15 17.44 2.15 12C2.15 6.56 6.56 2.15 12 2.15C17.44 2.15 21.85 6.56 21.85 12ZM12 23.15C18.158 23.15 23.15 18.158 23.15 12C23.15 5.84202 18.158 0.85 12 0.85C5.84202 0.85 0.85 5.84202 0.85 12C0.85 18.158 5.84202 23.15 12 23.15Z" fill="black" stroke="black" stroke-width="0.3"/></svg>