<svg xmlns="http://www.w3.org/2000/svg" class="ns-hero-meta__icon" width="19" height="18" fill="none">
                <path d="M13.908 14.793V3.825a2 2 0 00-2-2H3.25a2 2 0 00-2 2v10.25m8.895 1.4H4.671" stroke="#000" stroke-width="2"/>
                <path d="M13.908 6.375h.406a2 2 0 011.963 1.616l.928 4.75a2 2 0 01-1.962 2.384h-1.677M13.25 15.125c0 .822-.646 1.45-1.394 1.45-.75 0-1.395-.628-1.395-1.45 0-.823.646-1.45 1.395-1.45.748 0 1.394.627 1.394 1.45zM4.356 15.125c0 .822-.646 1.45-1.395 1.45s-1.395-.628-1.395-1.45c0-.823.646-1.45 1.395-1.45s1.395.627 1.395 1.45z" stroke="#000" stroke-width="2"/>
            </svg>